# xmcd
#
# Track frame offsets: 
#        150
#        12740
#        26100
#        41890
#        54490
#        69527
#        86467
#        100630
#        122390
#        136055
#        149455
#        163337
#        175022
#        191802
#        206980
#        223745
#
# Disc length: 3237 seconds
#
# Revision: 5
# Processed by: cddbd v1.5.2PL0 Copyright (c) Steve Scherf et al.
# Submitted via: ExactAudioCopy v1.0b4
#
DISCID=f00ca310
DTITLE=Peter Green Splinter Group - Me and the Devil [ disk 2]
DYEAR=2005
DGENRE=Blues Rock
TTITLE0=When You Got A Good Friend
TTITLE1=32-20 Blues
TTITLE2=Phonograph Blues
TTITLE3=Last Fair Deal Gone Down
TTITLE4=Stop Breakin' Down Blues
TTITLE5=Terraplane Blues
TTITLE6=Walkin' Blues
TTITLE7=Love In Vain Blues
TTITLE8=Ramblin' On My Mind
TTITLE9=Stones In My Passway
TTITLE10=Me And The Devil Blues
TTITLE11=Honeymoon Blues
TTITLE12=Kind Hearted Woman Blues
TTITLE13=I Believe I'll Dust My Broom
TTITLE14=If I Had Possession Over Judgement Day
TTITLE15=Sweet Home Chicago
EXTD=
EXTT0=
EXTT1=
EXTT2=
EXTT3=
EXTT4=
EXTT5=
EXTT6=
EXTT7=
EXTT8=
EXTT9=
EXTT10=
EXTT11=
EXTT12=
EXTT13=
EXTT14=
EXTT15=
PLAYORDER=
